<?xml version="1.0" encoding="utf-8"?>
<svg viewBox="0 0 500 500" xmlns="http://www.w3.org/2000/svg">
  <g id="g4642" transform="matrix(1, 0, 0, 1, -41.332649, -56.585411)">
    <path d="M 82.432 17.924 C 41.097 17.924 17.861 39.295 17.861 82.96 L 17.861 533.082 C 17.861 573.925 38.752 595.31 80.053 595.31 L 532.077 595.31 C 573.38 595.31 594.303 574.99 594.303 533.082 L 594.303 82.96 C 594.303 40.36 573.38 17.924 530.78 17.924 C 530.78 17.924 472.35 17.917 397.677 17.91 C 343.19 17.905 280.056 17.901 224.662 17.9 C 145.665 17.898 82.411 17.903 82.432 17.924 Z" id="path4644" style="stroke-width: 3.408; fill: rgb(0, 0, 0); stroke: rgb(0, 0, 0);"/>
    <path d="M 510.196 147.392C 539.351 118.239 499.026 80.1251 470.242 108.913L 363.941 215.212L 120.423 150.84L 79.8278 191.436L 280.536 297.14L 199.362 378.314L 136.255 370.565L 104.149 402.67L 175.744 440.313L 213.387 511.908L 245.492 479.801L 238.112 417.064L 319.286 335.889L 422.723 535.28L 463.317 494.684L 401.691 256.1L 510.196 147.392z" id="path4646" style="stroke: none; fill: rgb(255, 255, 255);"/>
  </g>
</svg>