<?xml version="1.0" encoding="UTF-8"?>
<svg id="map" width="1000" viewBox="250 616 42 33" height="1000" stroke-linecap="round" stroke-linejoin="round" preserveAspectRatio="xMinYMin" version="1.2" xmlns="http://www.w3.org/2000/svg">
 <g fill="#fff" stroke="#000" stroke-width=".2">
  <path style="fill: rgb(255, 255, 255); fill-opacity: 1; stroke-width: 0.2px; stroke-miterlimit: 4; stroke-dasharray: none; stroke: rgb(0, 0, 0); pointer-events: visible;" id="Hainaut_BE" fill="#ffffff" stroke="#000" stroke-width="0.2" d="m256.13 628.69-.6.28v.06l.22.25-.4.19-.04.16-.28.06-.15-.13-.1.03-.25.19.22.66.07.15.06.03.15.03.13-.12.31-.56.19-.22.22-.16.53-.19v-.06l-.13-.56-.15-.1zm7.4.15-.28.2-.4.84-.28-.2-.72.04-.1-.53-.4.15-.38-.15-.47.37-.43.53-.03.13-.13-.03h-.06l-.25-.2v-.21l-.25-.31-.44.1-.44-.23-.47.25-.12.06.15.25.16.32.1.1h.12l.15.05.1.13.12.4-.12.29.1.46.3.94.07.53.06.2.16.18.15.1.47.21.19.06.25-.03.47-.22.12-.1.1-.12.12-.06.13-.03.16.03.09.1-.03.12-.1.19.16.1.66-.04.25.06.25.1.22.18.18.32.13.62.03.78.12.69.38.3.03-.08h.03l.06-.03.03-.07.03-.12.2-.35.05-.09.16-.06.44-.06.47.03.22.09.18.13.2.06h.24l.66-.31.22-.03.19.06.37.37.25.13.22.19.31.6.22.09.06-.1v-.22l.13-.06.1.03.12.1.15.09.07.13v.15l-.1.13-.25.22-.09.15-.06.16-.03.3-.16.67-.03.3.16.07.21-.1.13-.02.1.03.21.71.06.16.1.13v.09l-.25.15-.22.19-.19.19-.09.12-.03.13-.03.19.06.03.07.25.03.22h-.1l.63.28.12.03.16-.03.66-.13 1.62.35.03-.06.13-.35-.35-.62-.15-.88-.16-.03-.06-.28-.06-.66.12-.28-.44-.69.38-.34-.13-.22.13-.56-.19-.1-.22-.03-.19.25h-.06l-.4-.22-.2-.21.41-.35.34-.03.13-.25.19-.03.06-.31.6.06.18-.4.31-.03.2.25.71-.16-.1-.63.23-.43-.22-.25.15-.07.13-.37-.47-.25.1-.1-.1-.12.12-.03.13-.38-.16-.18.1-.16-.38.12.13-.84-.63.31-.16-.06v-.15l-.3.21v-.4l-.07-.1-.47.04-.12-.1-.6.1-.25.3.03-.43-.3.06-.32-.4-.34-.07.06-.34-.6-.1.07-.37-.22-.25-.13.06-.31.47-.25.06-.19-.06-.09-.31-.06-.6.03-.21.19-.06h-.13l-.28-.1-.16.31-.06-.12-.25.15-.18-.06-.22.19h-.63l-.25-.06-.15-.2-.07-.18.07-.28-.13-.28-.56.15-.16-.12-.44.1v-.04l-.18-.5-.44.22-.13-.22z" pointer-events="visible"></path><path style="fill: rgb(255, 255, 255); fill-opacity: 1; stroke-width: 0.2; stroke-miterlimit: 4; stroke-dasharray: none; stroke: rgb(0, 0, 0); pointer-events: visible;" id="Limburg_BE" fill="#ffffff" stroke="#000" stroke-width=".2" d="m281.4 619.31-.18.1-.44.34-.18.1-1.26.03-.3.12-.13.1-.07.65.47.38.06.65-.21.25-.35-.06-.22.35-.53.06-.37.6-.82.21v.22l-.25.44.25-.1.2.32.18-.1.25.13.16-.13-.03-.4.28-.07.25.1.3.34-.24.13-.06-.13-.1.03.1.38-.44.22.03.37-.4.4.15.35.1.06.15-.1.2.2.37-.23.06.13.37-.03.16.13-.06.47-.07.06-.18-.06-.16.5-.03.56.25.06-.44.53.1.31-.13.35.22.1-.19.46.72.16.13-.2-.13-.24.62.03.07-.16.1.16.3-.22.35.15.03-.18.22-.22.47-.19.12.06.16.31.28.1.25-.06.06-.28.22.21.16-.06.28-.28-.06-.25.9-.34.47-.57-.19-.12-.18-.22-.07-.37.7-.91.12-.06.12-.06.03-.03.13-.22.15-.4.1-.2-.1-.06h-.12l-.22.1.38-.7.12-.43-.16-.19v-.21l.04-.16.1-.06.11.09.07-.1.06-.12.06-.25-.03-.06-.03-.03-.03-.13h.13l.09-.03.1-.06.09-.06-.25-.22.03-.22.12-.16-.03-.06-.12-.22h-.16l-.3.12-.16-.12-.25-.28-.16-.1h-.16l-.4.13-.2.03-.12-.1-.09-.1-.15-.08-.6-.13-.19-.16-.06-.03-.06-.37-.1-.31-.21-.25-.25-.13h-.22zm3.57 8.32-.1.06-.09.18.03.03.16.16.28-.1.47.57.37-.1.25.1.1-.03.21-.4-.21-.23-.13-.03-.9.1-.1-.07-.25-.22-.1-.03z" pointer-events="visible"></path><path style="fill: rgb(255, 255, 255); fill-opacity: 1; stroke-width: 0.2; stroke-miterlimit: 4; stroke-dasharray: none; stroke: rgb(0, 0, 0); pointer-events: visible;" id="Brussels_BE" fill="#ffffff" stroke="#000" stroke-width=".2" d="m271.64 628.17-.82.51-.22.07-.24-.03-.3-.18-.3-.56-.2.1-.4-.2.11-.25.26-.06.05-.28-.11-.19.17-.4.37-.22.45.05.26-.28.19.13.18.27v.16l-.15.18.43.25.2.51-.22.04-.08.15.37.24z" pointer-events="visible"></path><path style="fill: rgb(255, 255, 255); fill-opacity: 1; stroke-width: 0.2; stroke-miterlimit: 4; stroke-dasharray: none; stroke: rgb(0, 0, 0); pointer-events: visible;" id="Flemish_Brabant_BE" fill="#ffffff" stroke="#000" stroke-width=".2" d="m278.23 629.17-.27.07-.17-.07-.19-.21-.01-.3-.26-.13-.42-.29-.48.45-.16.03-.14-.1.02-.3-.79.13.04-.18h-.26l-.24-.37-.45-.12-.28.12-.07.22-.05-.12-.18.11-.55-.1-.02.42.2.25-.18.25-.35.04-.08-.36-.23.29-.45.13v.21l-.35-.17-.06-.08.03-.2h-.15l-.23.08-.36.32-.5.11-.04.26h-.2l-.22-.27-.07.09.12.16-.23.02v.25l-.07.1-.15.05-.3-.08-.2.16-.35-.26-.29.03-.24-.3-.1-.05-.1.05-.07.19h-.26l-.07.18-.29-.08-.13.29-.08-.11-.24.14-.2-.06-.2.19-.64.01-.23-.07-.16-.18-.06-.19.06-.28.25.08.33-.1.01-.1-.23-.29.12-.3.12-.08.28.2.17-.23.16.13.17-.09.3-.28.13-.47-.11-.24-.27-.04.45-.74v-.17l-.16-.13.26-.22-.1-.31.48.17.23-.18v-.21l-.18-.46.14-.34.35.1.23-.13.2-.8.35-.12.25.03.53.2-.06.12.07.03.3-.24-.08.26.2.05.07.24.62-.19.25.22.17-.3.37.25.17-.19.35.18h.16l.11-.36.75-.25.29.14-.1.27.37-.49.24.04.32-.29.2.38.14.08.53-.26.13.06.26-.27.4-.19.19-.03.15.17.26-.1.19.32.2-.1.23.13.18-.13-.04-.42.3-.06.23.1.3.34-.25.12-.06-.12-.1.03.1.39-.42.23v.36l-.38.4.16.36.07.05.17-.09.19.18.38-.22.05.13.37-.02.16.12-.06.47-.05.06-.2-.06-.15.5-.03.56.24.07-.44.53.1.3-.11.34.2.1-.16.46zm-6.6-1-.36-.23.08-.16.22-.04-.2-.51-.43-.25.15-.18v-.16l-.18-.27-.2-.13-.25.29-.45-.05-.37.21-.17.4.11.2-.05.27-.26.06-.11.26.4.2.19-.1.3.56.31.18.23.03.22-.06.82-.51z" pointer-events="visible"></path><path style="fill: rgb(255, 255, 255); fill-opacity: 1; stroke-width: 0.2; stroke-miterlimit: 4; stroke-dasharray: none; stroke: rgb(0, 0, 0); pointer-events: visible;" id="Namur_BE" fill="#ffffff" stroke="#000" stroke-width=".2" d="M277.06 630.36v.4l.54.46.32.77-.19.17.6-.01.18.38.14.01.24-.13-.13.15.1.25.2-.04-.04.15.13.19.34-.17.25.21.22.43-.14.34.15.2.53.1.01.31.16.2.55-.44.46.12.1.21-.2.32.17.18-.54.47.09.08.12-.2.24-.03.13.26v.25l-.26.32-.71.54-.13-.14-.11.02-.23.18.04.2h-.3l-.19.15.43.2-.1.17h.12v.16l.4.42-.07.3-.3.12.29.24-.04.18h-.29l-.27.21-.22.07-1 .14-.22-.07-.1-.46-.1.65.09.1-.1.28-.31.38-.1.05-.11-.1-.06.27h-.2l.27.24.18.53.11.05.45-.12.11.22.32.14-.01.37.25.22-.52.25-.26.28.2.16-.77.63-.03.15.1.31-.13.05-.03.29-.03.11-.2.03-.44.2-.24.05-.28-.03-.1-.12-.04-.62-.04-.1-.11-.16-.03-.08.01-.1.1-.12.02-.1.05-.2.04-.14.02-.14-.03-.22-.19-.3-.52-.17-.15-.22.03-.27.34-1.05v-.18l-.03-.13v-.15l.18-.46.06-.02.12.12v-.3l.04-.34v-.29l-.1-.13-.33.1-.13-.05-.06-.24-.28.15-1.06 1.23-.05.13-.02.17.03.1.05.07.01.12-.04.53-.06.27-.09.2-.1.08-.45.1-1.44.83-.3.07-.1-.01.04-.07.12-.36-.35-.62-.14-.86-.17-.05-.06-.27-.05-.66.12-.3-.45-.68.37-.33-.1-.23.1-.54-.16-.1-.23-.04-.18.24h-.08l-.4-.2-.2-.23.41-.33.36-.05.12-.25h.19l.07-.32.59.05.19-.39.3-.05.2.24.7-.16-.1-.62.23-.44-.23-.24.16-.07.14-.35-.47-.25.09-.1-.11-.12.14-.03.12-.4-.14-.17.07-.16-.37.12.13-.83-.05-.28.17-.15.18-.04.4.11.22-.06-.15-.51.1-.2.1-.01.31.18.04-.18.27-.1.09.34.4-.2.14.17-.06-.19.05-.06 1.1-.37.01-.1h.28l.22-.34.34.06z" pointer-events="visible"></path><path style="fill: rgb(255, 255, 255); fill-opacity: 1; stroke-width: 0.2; stroke-miterlimit: 4; stroke-dasharray: none; stroke: rgb(0, 0, 0); pointer-events: visible;" id="Luxembourg_BE" fill="#ffffff" stroke="#000" stroke-width=".2" d="m288.63 637.72-.1-.04-.08-.12-.05-.15-.07-.07-.15.14-.23.04-.07.16-.03.24-.07.24-.14.18-.38.22-.16.18-.03.1v.28l-.02.11-.06.1-.14.15-.06.1.03.2.01.16-.01.13-.07.09-.21.11-.06.09v.23l.09.09.05.09-.1.23-.08.1-.16.04-.07.06-.07.11-.04.1-.02.08-.03.1-.32.68-.03.16.13.05.25.16.1.15-.27-.01v.15l-.03.04-.01.06.1.08-.11.1-.04.16.03.2.09.2.12.18.11.05h.12l.14.08.08.1.29.48.02.08.04.23v.04l.07.05.15.03.07.03.06.01.07-.03h.07l.07.1v.03l.02.1-.03.06-.05.07v.19l-.03.06-.01.06.04.12.08.05.22.01.08.06.08.23-.05.15-.1.1-.08.11-.1.4-.07.17-.12.12.2.09-.09.27-.22.28-.25.14-.13-.02-.24-.13h-.12l-.1.07-.13.2-.13.06-.24-.02-.24-.1-.25-.04-.25.16-.12.19-.01.12-.03.07-.16.03-.1-.02-.34-.13-.2.1-.25.24-.26.18-.24-.04-.08-.14v-.15l.03-.16-.01-.18-.06-.15-.58-.9-.13-.1-.08-.07-.34-.1-.13-.06h-.07l-.04.04-.04.1-.05.08-.07.03-.18-.02-.06-.06-.03-.15.01-.24.09-.06.04-.06-.09-.25-.23-.24-.23-.2-.23.02-.48.17-.25-.06-.2-.13-.17-.15-.5-.63-.14-.11-.39-.09-.22-.1-.42-.37-.2-.1h-.03l.03-.11.03-.29.13-.05-.1-.3.03-.16.76-.63-.2-.16.26-.28.52-.25-.24-.22.01-.37-.32-.14-.11-.22-.45.12-.12-.05-.17-.53-.27-.24h.2l.05-.27.1.1.1-.04.33-.39.1-.29-.1-.09.1-.65.1.47.23.06.99-.14.22-.06.27-.23.3.01.03-.18-.28-.23.29-.12.08-.3-.41-.42v-.17h-.13l.1-.16-.42-.2.2-.16h.3l-.04-.2.22-.17.12-.02.12.14.71-.54.27-.33-.01-.25-.13-.26-.24.04-.12.2-.09-.08.54-.47-.16-.19.2-.31-.11-.21.33-.36-.24-.36.06-.12.14-.02.48.33.4-.31.12.32.18.02-.02.15.06.05.18.01.35-.2.6.5.35-.05-.03.2.53-.04-.15.43.02.18.2.28.29.05-.24.63.63-.15.17.04.09.15.05-.16.66-.15.06-.17-.37-.03.19-.6-.21-.15.07-.3 1.3.17.03.14.35.15.06 1.55.06.18.24.03-.13.18.06.17.01.04.02.51z" pointer-events="visible"></path><path style="fill: rgb(255, 255, 255); fill-opacity: 1; stroke-width: 0.2; stroke-miterlimit: 4; stroke-dasharray: none; stroke: rgb(0, 0, 0); pointer-events: visible;" id="East_Flanders_BE" fill="#ffffff" stroke="#000" stroke-width=".2" d="m269.29 620.42-.04.03-.06.17.26.7-.08.06.27.35.07.2.03.12-.03.37-.11.27-.4.16-.43.02-.2.05-.18.15-.12.16-.03.07.02.07.02.15.04.15.07.19.04.19-.04.17-.02.01.13.1.12.05.19-.18.1.1-.2.8-.24.13-.34-.1-.14.35.17.45v.21l-.22.19-.5-.18.12.32-.27.22.16.12v.18l-.45.74.27.03.1.24-.12.48-.3.28-.17.09-.16-.14-.16.24-.29-.2-.12.08-.12.3.24.3-.01.08-.34.1-.25-.07-.12-.28-.59.16-.15-.13-.41.07-.2-.5-.45.2-.12-.2-.3.18-.38.85-.3-.2-.7.03-.09-.52-.41.14-.39-.14.63-.52.02-.12-.26-.32.13-.18-.67-.53.23-.26-.1-.31-.16-.06-.24.16-.1-.22.14-.15-.09-.19.25.03.07-.08-.17-.15h.21l-.51-.24.32-.16-.2-.23.26-.43-.34-.52.22-.17-1.22-.8.44-.31.34-.73-.26-.43-.28-.08.24-.19-.2-.42.34-.23-.02-.03.25.1.33.02.49-.1.02-.16-.04-.2.01-.2.11-.12.15-.05.17-.02.4-.11.26-.03.27.03 1.29.36.2.12.06.21v.2l.02.16.16.18.13.05 1.23-.08.23-.09.45-.4 1.25-.72.5-.43.37-.59.05-.17.05-.39v-.07h.01l.2.18.1.16.09.3.18.2.2.15.14.16.04.1.02.1-.02.12-.07.12z" pointer-events="visible"></path><path style="fill: rgb(255, 255, 255); fill-opacity: 1; stroke-width: 0.2px; stroke-miterlimit: 4; stroke-dasharray: none; stroke: rgb(0, 0, 0); pointer-events: visible;" id="West_Flanders_BE" fill="#ffffff" stroke="#000" stroke-width="0.2" d="m259.98 621.33.02.03-.34.23.2.42-.24.2.29.07.26.43-.34.73-.44.32 1.21.79-.22.17.34.52-.25.42.19.24-.32.16.51.23h-.2l.16.16-.07.07-.25-.02.09.19-.13.14.1.23.23-.16.16.06.1.3-.23.27.67.53-.13.18.26.32-.02.12-.63.52-.45.37-.46.52-.03.13-.1-.03h-.07l-.26-.18v-.23l-.24-.3-.44.08-.44-.23-.46.26-.12.05-.2-.3-.18-.16-.27-.07-.83.3v-.06l-.12-.55-.17-.1-.6.27v.07l.22.25-.39.18-.04.15-.3.07-.15-.13-.07.03-.27.18.24.68.05.15-.85-.35-.2-.16-.06-.1-.16-.33-.06-.1-.4-.37-.08-.12-.03-.11-.06-.1-.14-.06-.1-.01-.2.03h-.08l-.16-.03-.08-.03-.06-.09-.1-.2-.04-.06-.13-.06-.04-.05v-.08l.08-.19.01-.1-.23-.73.06-.15.23-.25.06-.1-.05-.33-.17-.25-.39-.4-.11-.31-.13-.73-.17-.38.2-.16.4-.15 1.36-1.12 2.11-1.36 2.03-1.47 2.29-.86.13.64-.03.41.01.39.17.41.26.27.08.03z" pointer-events="visible"></path><path style="fill: rgb(255, 255, 255); fill-opacity: 1; stroke-width: 0.2; stroke-miterlimit: 4; stroke-dasharray: none; stroke: rgb(0, 0, 0); pointer-events: visible;" id="Antwerp_BE" fill="#ffffff" stroke="#000" stroke-width=".2" d="m279.04 620-.12.1-.07.65.45.37.08.66-.24.25-.35-.07-.2.36-.52.07-.39.56-.82.23.02.22-.27.45-.16-.17-.2.03-.38.19-.27.26-.13-.05-.53.26-.14-.08-.2-.38-.32.28-.23-.03-.38.48.1-.27-.29-.13-.75.25-.11.35h-.16l-.35-.17-.17.2-.37-.26-.17.3-.25-.22-.62.19-.07-.24-.2-.05.09-.26-.31.24-.07-.03.06-.12-.53-.2-.25-.03-.35.1-.1-.09-.2.18-.11-.04-.13-.1.02-.02.04-.17-.04-.19-.07-.18-.04-.15-.02-.15-.02-.07.03-.07.12-.17.18-.14.2-.05.43-.03.4-.16.12-.26.02-.37-.03-.11-.07-.2-.27-.36.09-.06-.27-.7.06-.17.04-.03-.02.03.12-.07.08-.1.13-.32-.36-.13-.08-.06-.05-.15-.01-.36-.05-.17-.08-.13-.16-.18h.3l.38.18.2.05h.49l.19-.11.03-.3-.07-.15-.25-.26-.09-.15v-.17l.06-.13.02-.12-.14-.13.52-.35.54-.24.3-.07.13.02.1.13v.28l-.08.22v.16l.2.13h.14l.3-.07.33.06.16-.02.13-.06.1-.09.74-1.03.32-.2h.15l.2.06.18.1.11.14.04.25-.05.24-.03.26.1.28-.47-.18-.11.02-.05.2.23.09.72-.03.2.04.4.16.22-.08.24-.27.22-.34.14-.28.06-.21.03-.16.05-.1.16-.05.03.04.32.18.23.38-.02.27-.1.28v.36l.07.16.38.37.07.14.13.36.06.1.19.09.4-.06h.19l.2.22.04.6.19.03.06-.02z" pointer-events="visible"></path><path style="fill: rgb(255, 255, 255); fill-opacity: 1; stroke-width: 0.2; stroke-miterlimit: 4; stroke-dasharray: none; stroke: rgb(0, 0, 0); pointer-events: visible;" id="Liege_BE" fill="#ffffff" stroke="#000" stroke-width=".2" d="m284.78 627.87.03.04.17.15.26-.1.49.56.37-.09.26.11.09-.04.21-.4-.21-.24.11.03.76-.03.21-.06-.01.03v.06l.01.03.18.08.02.16-.02.18.05.13h.14l.4-.14h.18l.22.18.71.93-.13.1.15.23.22.1.72-.05.04.1-.07.15-.1.16v.06l-.22.16-.3.3-.17.32.2.21-.08.14.02.07.09.03h.12l-.07.15.1.07.1.18.09.06h.1l.35-.14.02-.02.03-.01h.02l.03.02.16.07.47.06h.19l-.11.12-.01.14.04.14.07.17.1.14h.08l.05.06.01.28-.04.4-.05.22.03.2.42.6.02.11.02.13-.12.15-.28.07-.14-.01-.13-.04h-.12l-.13.1-.1.13-.05.17v.17l.05.14-.18.2-.44.16-.2.12-.1.17-.22.2-.1.15.15.14.08.19.01.18-.05.17-.08.05-.2.04-.1.06v.06l-.03.2-.01.07.11.08.05.1-.02.11-.09.12-.16-.05-.04-.13v-.16l-.06-.15-.14-.12-.08.02-.07.08-.08.06-.24.06h-.12l-.05-.03-.02-.5-.01-.05-.06-.17.13-.18-.23-.03-.07-.18-.06-1.55-.35-.15-.03-.14-1.3-.18-.07.32.2.15-.18.6.37.02-.06.17-.66.15-.05.17-.09-.16-.17-.04-.63.15.24-.63-.3-.05-.18-.28-.03-.18.15-.42-.53.04.04-.2-.35.04-.61-.49-.35.2-.17-.01-.06-.05.02-.15-.18-.03-.12-.32-.4.31-.49-.32-.14.02-.05.12.24.36-.33.36-.46-.12-.55.43-.16-.2v-.3l-.54-.1-.14-.21.14-.34-.23-.42-.24-.22-.35.17-.13-.2.04-.14-.2.04-.1-.25.14-.15-.24.13-.15-.02-.18-.38-.6.01.2-.16-.33-.78-.54-.45.01-.4.18-.4-.05-.48.16-.13-.28-.36.24-.15.01-.31.27.13.01.3.2.21.16.07.27-.07.7.16.13-.17-.13-.27.62.04.07-.16.09.18.32-.24.35.16.03-.19.2-.2.47-.2.14.05.16.32.29.1.23-.05.06-.3.22.2.16-.04.27-.27-.04-.27.88-.34.47-.56.07.04.23.09.17.04v.2l-.09.39.2.1h.12l.1-.02.05-.09z" pointer-events="visible"></path><path style="fill: rgb(255, 255, 255); fill-opacity: 1; stroke-width: 0.2; stroke-miterlimit: 4; stroke-dasharray: none; stroke: rgb(0, 0, 0); pointer-events: visible;" id="Walloon_Brabant_BE" fill="#ffffff" stroke="#000" stroke-width=".2" d="M277.32 628.53v.31l-.25.15.28.36-.15.13.04.49-.17.39-.34-.05-.22.34h-.28v.1l-1.1.37-.06.05.05.2-.13-.18-.4.2-.1-.33-.26.1-.04.18-.3-.2-.1.02-.1.2.15.51-.24.07-.39-.12-.18.04-.17.15.05.28-.61.31-.16-.06v-.15l-.33.2v-.41l-.05-.08-.48.03-.11-.11-.6.1-.24.3v-.41l-.3.05-.3-.4-.34-.05.04-.35-.57-.11.03-.35-.21-.26-.12.05-.3.48-.24.05-.19-.07-.12-.29-.04-.61.03-.22.19-.06h-.14l.07-.17h.26l.06-.2.1-.04.1.03.25.3.29-.02.35.27.2-.16.3.08.15-.06.06-.1.02-.25.23-.02-.12-.16.07-.09.21.27h.2l.05-.25.5-.11.36-.32.22-.1.16.02-.04.2.06.08.34.17.01-.2.46-.14.23-.29.07.36.35-.04.2-.25-.22-.25.02-.43.56.1.17-.1.05.11.08-.21.27-.12.45.12.25.36h.25l-.03.19.78-.13-.01.3.14.1.16-.03.48-.45.42.29z" pointer-events="visible"></path>
 </g>
</svg>
