<?xml version="1.0" encoding="UTF-8"?>
<svg id="map" width="814.6" height="935.94" stroke-linecap="round" stroke-linejoin="round" data-originalVB="0 0 814.6 935.94" preserveAspectRatio="xMinYMin" version="1.2" viewBox="77.396 756.77 95.337 95.337" xmlns="http://www.w3.org/2000/svg">
 <g fill="#fff" stroke="#000" stroke-width=".2">
  <path id="Aveiro_PT" d="m119.48 797.67-.12.11v.14l-.18.19-.26-.05-.1.02-.11.11-.09.13-.32.34-.07.15-.13.1-.1.07-.72-.15-.07-.12-.01-.1.02-.15.05-.17.12-.24.08-.1.07-.07.04-.02.06-.04.03-.05.09-.24.02-.1v-.12l-.12-.29-.04-.34h-.14l-.2.07-.22.12-.12.04-.1-.04-.08-.13v-.47l.11-.4-.44-.38-.32.4-.07.27-.11.16-.41-.09-1.24-1.57-.03-.04.06-.23.32-.73.25-.96.04-.05.08-.04-.03.35-.02.12.3-.4.19-.13.16.12.08.01v-.1l-.02-.05-.04-.1-.02-.1.05-.1.12-.06.07.06.04.1.06.05.13-.04.11-.11.18-.27-.18-.14-.1-.2.06-.18.24-.06h.29l.23-.07.2-.12.22-.17h-.21l-.33.13-.27.03-.05.02h-.07l-.27-.16-.08-.15-.05-.46.54-.63-.09-.37-.04.27-.1.22-.1.06-.04-.23-.21.32-.18.42-.13.45-.07.41-.08.27-.17.37-.2.34-.18.17 1.75-5.55.04-.38.12-.02.54-.02.2.16.4-.1.2-.13.16.01.1.08.1.11.16.12h.13l.1-.06.1-.22.07-.09.24-.23.23.3.05.1.07.2.2.2h.1l.05-.07v-.1l-.05-.1v-.1l.02-.1.34-.12.23.11.64-.37.05-.04.07-.18.7.57.04.1.02.17-.02.11-.04.36.89.55.15.01.16-.01.1-.2.05-.05.04-.04.17-.13.1.01.03.07v.11l-.01.03-.03.08-.45.54-.08.18-.05.19v.11l.04.23.02.43.07.31-.02.2-.07.1-.11.02-.12-.02-.1-.06-.09-.08-.1-.05-.14-.01-.23.09-.15.01-.15-.04-.1-.05h-.38l.1.53-.03.1-.13.17-.3.53-.33.3-.3.2-.15.22-.01.07v.17l.05.11.16.21.06.15.03.12-.03.47.06.23.06.05.21.11.2.2-.53.15-.1.08-.08.12v.11l.1.38.05.3.06.12.08.1.07.1.12.27-.7.21-.32.2-.03.1.02.1.1.25-.03.21-.06.14-.41.53v.52z"/>
  <path id="Leiria_PT" d="m121.6 805.43-.29.48-.13.1-.13.07-.1.02-.13.04-.12.12-.11.13-.08.06-.13-.03-.57.13-.07.06-.08.1v.08l-.02.1-.08.05-.11.14-.01.08.05.2-.52-.1-.1-.06-.02.08.02.12v.33l-.06.03-.24-.05-.29.1-.16.02-.54.14-.24.06v-.08l-.03-.1v-.14l-.05-.4-.01-.18-.11-.72-.2.04-.18.12h-.12l-.18.03-.66.4-.24.1-.16.01-.22-.08-.6.2-.08.1-.09.14v.43l-.02.2.02.13.08.1.1.1.08.13.02.27-.06.15-.1.09-.11.07-.12.05-.3.2.06.53v.31l.1.46-.1.12-.36.4-.1.02h-.13l-.1-.07-.09-.01-.06.07-.02.11v.14l.07.19.02.04v.03l-.03.05-.04.12-.2.12-.6-.13-.84-.01-.39.1-.19.17-.48.81-.13.16-.12.06-.25.03-.32.46-.08.19.05.3-.02.55-.35-.12-.23-.14-.17-.05h-.15l-.1.04-.13.07-.3.3-.35.5-.28.27-.3.2-.18-.23-.19-1.03-.08-.2-.08-.15-.09-.06h-.06l-.17-.04-.1.07-.58.26-.49-.05h-.12l-.04-.4-.11-.35-.4-.54-.08-.17.15-.03.55.23 1-.54.25-.18h.26l.14.2.13.06.16-.14-.07-.23-.19-.22.24-.32.32-.31.12-.17.25-.13.39-.2.21-.3.16-.25.3-.44.06-.3v-.31l.2-.43.15-.62 1.26-2.61 1.48-3.28.07.04.31.18.1.1.17.1.4.13h.12l.16-.1.33-.11.64.13.24.04.26.1.14.1.2.22.1.2.03.02.08.04h.13l.07-.02.04-.03.23-.31.1-.06.09-.04h.1l.07.01.08.05.07.1.05.38v.16l-.02.26.01.13.04.1.06.06.1-.07.25-.27.35-.17.45-.32.25.05.03-.08.11.02.08.09.14.37.1.33.03.22-.04.14-.08.1-.1.06-.06.05.08.04h.1l.53-.14.5-.47h.12l.2.1h.1l.08-.07.04-.14-.04-.1-.14-.16-.03-.06-.01-.12v-.1l.22-.3.58-.43.36.18.43-.48.16.11.07.08.07.13.03.1-.13.47.01.29.45.9-.16.1-.06.07-.07.17.02.08.02.07.01.03-.06.2z"/>
  <path id="Viana_do_Castelo_PT" d="M123.86 773.92h-.01l-.05.02-.15-.02-1.22.54-.31.08-1.08-.06-.19.02-.18.06-.1.05-.23.16-.21.07-.1-.02-.1-.04-.1.02-.07.04-.1.1-.05.12-.04.12-.05.25-.04.12-.05.11-.12.1-.07.11-.03.1.04.18-.26.37-.08-.02-.1-.04-.13-.09-.25-.07-.35-.17-.09-.08-.06.04-.05.07-.1.07-.11.01-.63-.04-.93.24h-.12l-.24-.06h-.06l.01-.21-.07-.31.02-.4.06-.18.29-.08.76-.05.22-.08.21-.12.19-.15-1.4.27-.3.01-.15-.03-.2-.17-.18-.56.04-.48.18-.74-.03-.48.07-.17.1-.15.94-.64.46-.44.21-.6.15-.09.29-.11.32-.07.27-.14.1-.16.17-.34.13-.16.22-.14.22-.02.45.04.23-.08.45-.25.24-.06 1.9-.12.22-.1.34-.25.12-.06.1-.02.2.01.23-.07.4-.23.09.17.08.27-.1.7.01.28.15.14.18-.03.23-.08h.26l.22.12.17.2.08.26-.06.29-.15.19-.2.15-.39.2-.39.32-.54.66-.14.29-.05.3.11.32.42.21.08.14v.23l-.08.4z"/>
  <path id="Beja_PT" d="m132.09 835.44.16.18.2.02.33-.05.32-.12.18-.2.07.02h.03l.35-.07h.36l.17.14.04.03-.17.46-.12.24-.21.54-.28.49-.15.5-.14.2-.14.39-.33.01-.71-.36-.23-.04-.12.12-.15.33-.15.17-.1.06-.18.04-.17.07-.16-.03-.16-.07-.16-.02-.15.08-.42.05-.1.1v.13l.03.16-.01.17-.1.3-.34.74-.18.56-.41.62-1.28.93-.26.32-.21.48-.18.8-.09.24-.1.13-.37.34-.13.07.02.1-.01.09-.04.07-.02.08-.15.15-.05.06v.18l.02.02h.05l.05.24v.11l.02.1v.02l-.32.03-.38-.03-.28.13-.28.22-.15.1-.12.01-.08-.04-.18-.05-.07-.05-.69-.07-1.05.36-.25.14-.1.05-.07.05h-.08l-.25.1-.11.02-.08.04-.03.11-.2.01-.24.13-.03.1-.08.1-.18.1-.37.02h-.17l-.44.02-.18.1-.06.11-.03.11.03.07.09.15v.08l-.1.03-.48.21-.32.22-.2.07-.14-.01-.49-.1-.26-.03-.4-.15-.86-.78-.19-.12-.14-.2-.03-.1-.01-.25-.08-.2-.32-.12-.23.01-.12.07-.14-.04h-.15l-.28.03-.52.14-.05.04-.1.11-.03.12-.08.15-.23.08-.24.08-.56-.15-.18-.1-.47-.35-.16-.04-.5.04-.12.03-.07.1-.08.07-.07.06-.13-.04-.07-.08-.33-.2-.53-.06-.1-.07-.1-.13-.1-.15-.2-.2-.19-.07-.24-.18-.14-.13.07-.22.12-.44.1-.76-.04-.4-.1-.28-.15-.23-.01-.22.24-.71.1-.45.16-.42.18-.07.38-.03.1-.4.01-.06-.13.1-.3.05-.32-.02-.08-.3.17-.84.17-.58.1.13.07.12.06.05.1.02.1-.05.1-.05.1-.02.22.1.09.13.03.1.3.44.1.24.05.09h.08l.06-.07.05-.09.09-.04.1.04.1.07.08.08.22.12.14.03.23-.06.08-.1.04-.14.02-.12.16-.36.07-.12.25-.21.07-.12.04-.11.14-.1.23-.1 1.18-.12.56.16.34.03.05.02.37.24.22-.45.06-.1.19-.44.15-.73.03-.48-.09-.36-.07-.18-.16-.16-.16-.02-.15-.05-.16-.1-.17-.25-.23-.22-.05-.18-.01-.09v-.09l.05-.1.03-.1.04-.1.05-.11.08-.14h.09l.06.04.07.04h.07l.05-.07.04-.05.07-.15.03-.08v-.09l.02-.07.04-.07.09-.03.08-.07h.1l.12.06.09.08.1.05.09-.04.1-.29.03-.13.06-.1.1-.06.46.06.1-.13.07-.17.1-.05.47-.08.23-.09.47-.09.08-.18v-.12l.02-.15-.06-.43-.25-.72.06-.14.95.1.3-.01.18.04.06.04.14.19.12.11.11.05.11.01.3-.13.15.03.1.04.37.19.26.38 1.05.6.65.12.33.15.78.54.18.08.85.09.24.07.28.12.58.07.14-.03.04-.1.19-.27.23-.21.39-.17.03-.05.21-.1.06-.07.14-.09.1-.14.07-.15.02-.11.03-.11.42-.09.43-.2.11-.02h.08l.34-.11h.11l.09.02.03.07.01.05v.08l.03.06.04.08.06.1.05.12.02.13.01.12.05.12.24.29.32.18.07.1.03.1.01.12.12.36.03.12.1.25.1.12.15.13.19.03.13-.04.08-.05.06-.03z"/>
  <path id="Évora_PT" class="" d="m131.43 825.64-.6.43-.04.06-.12.21-.06.12-.13.56-.05.38-.01.17v.13l.06.11.08.06.07.06.03.13-.08.23-.6.75-.3.82-.15.18.13.23-.03.2-.14.17-.2.18.17.11.35.3 1.22 1.9.05.1.07.22.04.1.09.1.2.2.06.07.42 1.4.12.12-.06.03-.08.05-.13.04-.2-.03-.14-.13-.1-.12-.1-.25-.03-.12-.12-.36v-.12l-.03-.1-.07-.1-.33-.19-.24-.29-.05-.11-.01-.13-.02-.13-.05-.12-.06-.09-.04-.08-.02-.06v-.08l-.02-.05-.03-.07-.09-.03h-.1l-.34.12h-.08l-.11.02-.44.2-.42.08-.03.1-.02.12-.07.15-.1.14-.14.1-.06.07-.21.09-.03.05-.38.17-.24.2-.2.27-.02.11-.14.02-.59-.06-.28-.12-.24-.07-.85-.1-.18-.07-.78-.54-.33-.15-.64-.13-1.05-.6-.26-.37-.37-.19-.1-.04-.15-.03-.3.13-.1-.01-.12-.05-.13-.11-.14-.18-.06-.04-.18-.05h-.3l-.94-.1-.07.15-.45-.43-.23-.1-.12-.02-.12-.03-.11-.05-.25-.18-.17-.16-.27-.14-.07-.05v-.13l.25-.36.07-.28-.05-.14-.09-.08-.18-.1-.05-.1.01-.1.06-.05v-.1l-.12-.47v-.1l-.01-.05v-.02l-.06-.1-.15-.2-.22-.33-.1-.07-.25.03-.32.17-.19.05-.37-.02-.15-.08-.11-.1-.07-.08-.03-.1-.08-.06-.12-.03-.06.06.02.09v.1l-.02.1-.08.03-.3-.13-.37-.1-.47-.34-.37-.1-.04-.4-.02-.14-.05-.1v-.17l.02-.13.52-.56 1.15-.66.22-.23.12-.15.04-.2v-.11l.16-.25-.01-.18-.08-.05-.52-.16.66-.47.58-.06.14-.08.28-.25.14-.02.14.03.1-.02.08-.03.06-.06.07-.08.03-.1.04-.07h.08l.22.1.16.03.16-.04h.12l.07.03.08-.03.03-.08.06-.07.08.01.09.07.31.4.1.1.4.12.13.07.07.09.04.1.01.1.04.08.07.01.06-.01.06.05.06.2.04.1.2.13.24-.2.1-.22-.02-.15-.07-.1-.1-.05-.1-.03-.19-.24-.07-.16.02-.12.1-.28-.06-.13-.05-.06-.15-.04-.64-.36-.08-.07-.1-.1-.01-.13.05-.1.09-.09.08-.1.06-.13.05-.18.03-.27.05-.15.08-.1h.23l.08-.05.14-.2.27-.2.22-.08.1-.05.1-.02.35.01.19.1v.09l-.05.1-.07.22.04.23.07.1.08-.02.05-.1v-.1l.04-.08.01-.04.01-.01.01-.01.16-.05h.19l.11.03.06.05.02.02.25.33.02.15-.01.24-.03.19.04.03.31.08.12-.02.1-.05.1-.07.08-.09.22-.13.28-.02.14.12.51.85.34.29.13.03.14.01h.11l.27.03.43-.11.14-.12.22-.24.1.02.2.13.1.04.12-.05h.12l.13.03.28.14.1-.01.07-.03.06-.06.07-.1.1-.13.2-.14.19-.04.27-.04.2-.06.13-.08.06-.1v-.12l-.03-.09-.08-.14.18-.1h.11l.06.16.5.26.18.22.07.17v.3l.03.1-.01.17.26.29.08.33v.22l.17.3-.1.24.09.14.14.33.1.11.19.13.23.02.05.03.2-.05.28-.26.3-.2.38-.1h.24l.15.09.14.12.04.12-.01.23-.03.1-.21.29-.04.08-.02.15.08.12z"/>
  <path id="Faro_PT" d="m109.1 845.75-.16.5-.29.56-.09.38-.4.4-.25.38.06.28.1.31-.3.72-.3.28-.25.22.06.5-.22.38-.22.43-.6.78-.08.1-.1.22-.12.43.21-.06.13.13.12.15.2.1.15-.04.28-.22.13-.03.12-.06.25-.22.25.13.31-.25.32-.03h.21l.16-.07.38-.18.15-.03.81.06.44-.4.19-.13.22-.03h.6l.56.15.65.47.03-.03.57.28.56-.03.4-.16.47.25.44.2 1.06-.07.47.03.38.22.53.16.9.62.44.44.25.47v-.16l-.03-.1-.12-.21.12.06.16.13.16.03.12-.19.22.13.78.06.28.1.22.12h.19l.44-.35 2.12-1.22.1-.15.8-.44.23-.06.56-.32.31-.09.28-.03.28.06.28.1.22.18.1-.12v-.1l-.06-.02-.03-.07-.04-.09-.03-.06-.15-.75-.04-.38.13-.25-.1-.56v-1.34l-.18-.53.06-.2-.03-.37-.03-.4-.06-.32-.06-.09-.22-.22-.1-.12-.1-.16-.33.03-.38-.03-.28.12-.28.22-.13.1-.12.03-.1-.06-.15-.07-.1-.03-.68-.06-1.07.34-.22.16-.1.03-.08.06h-.07l-.25.1-.12.02-.1.04v.12h-.21l-.22.13-.06.09-.07.1-.19.09-.34.03h-.19l-.43.03-.2.1-.05.12-.03.09.03.1.09.12v.1l-.1.02-.5.2-.3.21-.2.1-.15-.03-.47-.1-.25-.03-.43-.16-.85-.78-.19-.1-.15-.21v-.1l-.03-.24-.07-.2-.31-.11h-.25l-.13.06-.12-.03h-.16l-.28.03-.53.12-.03.06-.1.1-.05.12-.07.16-.21.06-.25.1-.57-.16-.19-.1-.47-.34-.15-.03-.5.03-.13.03-.06.1-.06.06-.1.06-.12-.03-.06-.1-.35-.18-.53-.06-.1-.1-.08-.12-.1-.13-.18-.19-.22-.09-.22-.19-.16-.12zm11.75 8.6-.35.28-.28.09-.65-.16-.03.13.3.12.38.06.35-.06.25-.15v-.03l.09-.07-.03-.12v-.03l-.03-.07z"/>
  <path id="Portalegre_PT" class="" d="m128.46 810.13.07.25.32 1.19.2.23.34.54.2.23.41.26.1.15.09.38.18.17.26.16.52.19.08.17-.03.36-.1.37-.11.23-.09.23-.02.37.03.36.08.2.22.21.57.84-.2.29-.04.35.07.34.16.27.3.2.34.13.3.17.12.33-.04.17-.16.3v.15l.13.14.18.11.19.05.16-.04.32-.17h.34l.33.11.28.23.19.22.15.3.06.34-.11.28.13.13.01.15-.08.16-.14.16-.5.81-.31.38-.3.21.16.34-.09.26v.24l-.11.06-.17.12-.17.15-.21.08-.6.09-.14.1-.08.15-.2.2-.22.15-.2.06-.2.14-.08-.12.02-.15.03-.09.22-.28.02-.11.01-.23-.03-.12-.15-.11-.15-.1h-.23l-.39.1-.3.21-.28.26-.19.05-.06-.03-.23-.02-.18-.13-.1-.12-.14-.33-.09-.13.1-.25-.17-.29v-.22l-.09-.33-.25-.28v-.18l-.01-.1-.01-.3-.07-.17-.19-.22-.5-.26-.05-.16h-.12l-.18.1.08.14.04.1-.01.1-.06.11-.13.08-.2.06-.27.04-.19.04-.2.14-.1.12-.07.11-.06.06-.07.03-.1.01-.28-.14-.12-.03h-.12l-.14.05-.1-.04-.18-.13-.1-.02-.23.24-.14.12-.43.11-.26-.03h-.11l-.15-.02-.13-.03-.34-.28-.5-.85-.14-.13-.28.03-.22.13-.08.09-.1.07-.1.05-.12.01-.3-.07-.05-.04.03-.19v-.24l-.02-.15-.25-.33-.01-.02-.06-.04-.12-.05-.2.02-.15.04v.01l-.02.01-.01.04-.03.08-.01.1-.05.1-.07.02-.08-.1-.04-.23.07-.22.05-.1v-.09l-.18-.1h-.36l-.1.02-.1.05-.22.07-.27.2-.55-.23-.16-.17-.02-.12-.03-.14-.07-.18-.13-.14-.06-.13-.04-.13-.03-.17-.1-.13-.13-.11-.28-.17.03-.27.42-.56.19-.16.75-.45.81-.64.33-.22.17-.34.18-.15.13-.02.24.07.2-.03.09-.08.06-.06.06-.09.33-.33.2-.27.08-.12.06-.22.1-.08.64-.36.3-.39-.02-.1-.04-.12-.2-.17-.45-.57.34-.7.3-.4.25-.18.17-.05.23.08.5.34.15.18.02.03.07-.03.06-.04.27-.28.1-.06.28-.14.2-.18.2-.25.23-.2.25-.08.1-.1.13-.25.19-.26.22-.14.29.05.2.13.21.05.3-.2.18-.15.23-.13.26-.07.13.06z" pointer-events="visible"/>
  <path id="Santarém_PT" class="" d="m119.48 807.36.05.26.12.1.17.06.13.08.07.1.04.1v.17l-.02.08v.3l-.1.15-.04.32v.6l.1.22.67.34.3.26.27.04h.45l.28-.09v-.19l-.07-.27v-.18l.09-.21.1-.16.24-.84.07-.11.27-.03.38.19.31.03.07.08.03.1.01.13v.5l-.05.26.02.14.08.05.14.05.15.04.25.12.17.17.22.17.24.33.23.45.04.12.07.3.1.17-.29.14-.09.06-.27.28-.06.04-.07.03-.01-.03-.17-.18-.49-.34-.23-.08-.17.05-.25.19-.3.38-.34.7.45.58.2.17.04.12v.1l-.28.39-.65.36-.1.08-.06.22-.07.12-.2.27-.34.33-.06.09-.06.06-.1.08-.18.03-.25-.08-.12.03-.18.15-.17.34-.33.22-.81.64-.76.45-.18.16-.43.56-.03.27.29.17.12.1.1.13.04.17.03.13.07.14.13.14.07.18.03.14.02.12.15.16.55.24-.13.2-.08.06h-.24l-.07.1-.05.15-.03.27-.05.17-.06.14-.08.1-.09.08-.05.1.02.14.09.1.08.07.64.36.15.04.05.06.05.13-.1.28v.13l.06.15.18.25.1.02.1.06.08.1v.14l-.08.23-.24.2-.2-.14-.05-.09-.05-.2-.06-.06-.06.02-.08-.02-.03-.07-.01-.1-.05-.1-.07-.1-.13-.06-.39-.12-.1-.1-.31-.4-.09-.07-.08-.01-.06.07-.04.07-.07.04-.07-.03h-.12l-.16.04-.16-.03-.22-.11h-.08l-.04.08-.04.1-.06.07-.06.06-.08.03-.1.02-.14-.03-.14.03-.29.25-.14.08-.58.06-.66.47-.33-.09h-.12l-.14-.06-.12-.2-.01-.14.02-.15.03-.12.02-.12.03-.13v-.08l-.06-.04-.23.08-.25.12-.35-.17-.14-.1-.07-.09-.09-.06-.08.03-.45.71-.2.45-.04.13-.22.24-.23.05-.08-.02-.35-.16-.1-.18-.1-.06-.14-.03-.22.04-.14.06-.27.08h-.15l-.12-.05-.1-.13-.03-.26.03-.2-.05-.4-.04-.11-.05-.08-.2-.3.03-.2.2-.19.1-.12.23-.35.56-1.17.16-.27.14-.16.07-.16.3-.35-.13-.13-.03-.15.48-.09.3-.29.08-.04.03-.05-.01-.1.22-.2.14-.22-.36.22-.08-.23-.05-.1-.05-.06-.07-.08-.25-.13-.08-.07-.34-.38-.05-.11-.07-.23-.08-.08-.1-.06-.05-.1v-.1l.2-.11.16-.03.38.05.2-.03.2-.15-.57-.7-.08-.26-.53.1-.85-.35.05-.24-.12-.41.02-.55-.04-.3.07-.2.32-.45.25-.03.12-.07.13-.15.48-.82.2-.16.38-.1h.84l.6.13.2-.11.04-.12.02-.06v-.03l-.01-.04-.07-.19v-.13l.01-.11.07-.07.1.01.09.06h.12l.1-.01.38-.4.09-.12-.11-.46v-.3l-.05-.55.3-.19.12-.06.1-.07.11-.09.06-.14-.02-.27-.08-.14-.1-.1-.08-.1-.02-.13.02-.2v-.42l.09-.14.07-.1.6-.2.23.08.16-.01.24-.1.66-.4.17-.04.12.01.18-.12.2-.04.11.71.01.19.05.4v.14l.03.1v.08l.24-.06.54-.14.17-.03.29-.1.24.06.06-.03v-.33l-.02-.12.02-.08.1.05.51.1z"/>
  <path id="Braga_PT" d="m125.67 781.52-.05.16-.03.07-.06.07-.06.06-.07.04-.1.07-.05.05-.07.06-.1.07-.1.04-.12-.01-.13-.13-.25-.18-.14.02-.38-.21-.4-.38.03-.15-.04-.1-.22-.3-.6-.28-.2.27-.27.16-.4.14-.08.02-.3.09h-.09l-.15-.15-.1-.04-.51.02-.4.06-.3-.07-.07-.08-.1-.06-.15-.02-.21.04-.25.11-.1.06-.1.08-.1.01-.1.03-.7-.07-.11.01h-.05l-.08-.06-.06-.13-.03-.22v-.13l.1-.12.13-.02.07-.03.05-.09-.04-.1-.1-.13-.14-.05-.16-.12-.2-.24-.06-.1-.1-.11-.11-.06-.31-.04-.3-.19-.28-.2-.29-.04v-.01l-.1-.4.02-.34-.03-.24-.01-.28-.1-.52-.03-.38-.05-.28v-.1l.07.01.23.06h.12l.93-.24.63.04.11-.02.1-.07.05-.07.07-.04.09.08.35.17.24.07.13.1.1.04.1.02.25-.37-.04-.19.03-.1.07-.1.12-.1.05-.1.04-.13.05-.25.03-.13.05-.12.11-.1.07-.03.1-.02.1.04.1.01.2-.06.25-.17.1-.05.17-.06.19-.02 1.08.05.3-.08 1.23-.53.15.02.05-.02v.03l1.05.17.54-.1.03.03v.09l-.04.1-.08.09-.06.1-.14.48-.13.2-.14.33-.08.15-.07.1-.31.3.17.02h.15l.08-.03h.19l.1.03h.1l.24-.09.08.02.08.04.3.24.06.06.02.1-.07.2-.04.16-.12.74.24.13.14.04.12.08.1.06.47.15.16.02.37-.08.28-.27.12.08.06.08.17.4-.04.19-.56.7-.16.16-.25.09-.04.04-.08.2-.15.1-.09-.03h-.06l-.07.03-.13.16-.14.38.04.13-.02.08-.05.12-.21.28-.05.12-.06.04-.04.01-.03.05.02.12v.1l-.14.27z"/>
  <path id="Bragança_PT" d="m138.72 772.74.17.1.28.26.33.1h.77l.3-.16.12-.49.37.1.4.74.35.14.88.03.43-.1.19-.34.29.15.15.21.03.28-.16.71.1.13.2.05.32.13-.17.3-.4 1.33-.07.16-.1.13-.08.15.02.15.08.14.04.16.01.32.04.33.15.28.33.15.13-.02.2-.08.18-.1.09-.1.09-.07.17.02.98.28.58.27.53.4.48.6.15.26.12.17-.65.84-.35.31-.09.17v.13l.03.11-.02.11-.52.73-.01.15h-.4l-.17.05-.17.12h.04v.11l-.03.13-.03.09h-.05l-.15-.04-.06.02-.44.6-.42.39-.43.29-.75.26-.12.08-.81-.05-.23.02-.15.15-.5.64-.1.24-.09.13-.46.34-.18.2-.06.11v.42l-.12.3-.55.7-.19.15-.34.01-.76-.13-.26.11h-.01l-.2-.06-.53-.07-1.05-.66-.12-.19-.08-.23-.04-.22.03-.15.06-.15.02-.11-.12-.06-.08-.03-.08-.06-.07-.07-.05-.07.07-.1.14-.35-.13.05-.5.3-.13.17-.25-.02-.39-.15h-1.3l-.4-.17-.14-.16-.32-.58-.18-.15-.18-.02.1-.21.02-.08.06-.1.12-.03.18-.01.05-.03-.01-.09v-.11l.02-.14.07-.21.12-.14.14-.13.03-.07-.02-.1.04-.17.24-.22.44-.1-.28-.2-.1-.14-.06-.24-.04-.34.07-.82.43-.28.11-.03.11-.06.12-.13.12-.25.17-.27.12-.13.13-.04h.11l.11-.02.1-.04.05-.09-.01-.1-.04-.12-.06-.11-.05-.12-.03-.14v-.22l.09-.43.51-1.36.37-.63.11-.1.08-.03.07-.09.04-.09.01-.23v-.13l-.2-.34-.08-.31-.02-.17v-.3l.05-.33.04-.17-.04-.33-.02-.09.16-.19.05-.26-.03-.54.04-.23.1-.1.2-.13.23-.1.17-.01.38.28.34.36.37.2.45-.15.3-.19.11.07z"/>
  <path id="Castelo_Branco_PT" class="" d="m136.97 801.17-.16.01-.57.32-.23.08-.12.15-.15.37-.13.19.09.25.04.57.14.24.15.06.33.07.13.07.12.13.15.29.25.38.44.96-.25.35-.07.18.01.18-.06.14-.1.4-.05.07-.13.08-.04.07v.1l.03.17-.01.08-.03.15-.03.28-.06.16-.35.45-.13.07-.3.1-.1.07-.11.22v.18l.04.16.01.14-.06.15-.17.26-.07.15-.02.16.03.11v.13l-.17.34-.19.07-1.88.09-.4-.05-.26-.2-.22.05-.5-.05-.24.03-.22.07-.17.04-2.73-.37.02.05-.13-.07-.26.08-.23.13-.18.15-.3.2-.21-.06-.2-.13-.3-.05-.22.14-.18.26-.14.25-.09.1-.26.08-.22.2-.2.25-.2.19-.1-.18-.08-.3-.04-.12-.23-.45-.23-.33-.22-.17-.17-.17-.25-.12-.16-.03-.13-.05-.08-.06-.02-.14.04-.26.01-.25v-.25l-.02-.12-.03-.1-.06-.09-.31-.03-.39-.18-.27.02-.07.12-.22.84-.11.15-.08.21-.01.18.07.27v.2l-.28.08h-.45l-.27-.04-.3-.25-.68-.35-.09-.22v-.6l.03-.32.1-.14v-.3l.02-.09v-.17l-.03-.1-.07-.1-.14-.08-.17-.05-.12-.1-.05-.26-.04-.2v-.07l.11-.14.09-.06.01-.1v-.08l.08-.1.08-.06.57-.12.13.03.08-.06.11-.14.12-.11.13-.05.1-.01.13-.07.14-.11.29-.47.22-.19.04-.1.1-.05.06-.02.17-.01.15-.16.3-.05.2.03.05-.06.03-.08.03-.1.07-.01h.18l.07-.07.07-.03.11-.02.09.02.07.04.05.03.07-.04.19-.23.1-.05.1-.01.23.01.13-.07.03-.08-.03-.24.05-.13.17-.15.31-.13.18-.01h.16l.1.05.12.06.23.23.06-.33v-.28l.08-.1.06-.03.06.02.02.06.04.06.08.04.13-.01.27-.15.12-.1.05-.09.02-.1v-.2l-.05-.18-.32-.28-.19-.28-.12-.12-.05-.13-.05-.2.05-.13.33-.63.25-.09h.21l.16-.06.5-.31.35-.12.35-.18.3-.27.28-.35.3.15.43-.05.13-.1.1-.1.1-.22.04-.11.2-.3.68-.55.46.46.28.12h.14l.41-.09.3-.3h.1l.13-.02.22-.01.1.02.14.08-.19.98-.2.42-.1.12-.12.1-.14.17-.04.12v.1l.04.06.09.05.07.03.13.06.26.08.31.1.59-.17.6.05.16-.04.1-.1.04-.1.06-.14.09-.11.14-.12.09.04.06.08.04.12.1.24.1.1.3.09h.28l.2-.03.14.02.07.02.3.19.18.15.12.16.05.06z"/>
  <path id="Coimbra_PT" d="m119.48 797.67.14.07.11.12.38.14.27.24.18.2.19.11.09.11.07.01.05-.04.03-.07.02-.08.04-.07.05-.04.54-.06.72.19 1.02-.62.7-.23.58-.34.24-.1.34-.45.45-.3.16-.14.14-.08.26-.05.1.4.07.06.06.13v.12l-.06.15-.08.1-.1.05-.12.03-.1.07-.04.11.07.17.1.08.22.07.06.08-.02.15.05.61.07.14.17.18.03.1-.04.1-.3.18-.12.12-.11.17-.09.25-.17.32.33.23.16.3-.33.63-.05.13.05.2.06.13.12.13.18.28.33.27.04.18v.21l-.01.1-.06.07-.12.1-.26.15-.13.01-.09-.03-.04-.07-.01-.06-.07-.02-.06.04-.07.1v.27l-.07.33-.22-.23-.11-.06-.12-.04-.15-.01-.18.01-.31.13-.17.16-.05.13.03.23-.02.09-.13.07-.25-.02-.1.01-.09.06-.19.23-.06.04-.06-.04-.07-.04-.09-.01-.11.02-.07.02-.07.07h-.18l-.07.02-.02.1-.03.07-.05.06-.21-.02-.3.05-.15.15h-.17l-.06.03-.1.06-.04.1-.21.18.06-.2-.01-.02-.02-.07-.02-.09.07-.16.06-.07.15-.1-.44-.9v-.3l.12-.46-.04-.1-.06-.14-.08-.07-.15-.12-.43.48-.36-.18-.58.44-.23.3v.1l.01.12.04.06.14.16.04.1-.04.13-.08.08h-.11l-.2-.1h-.13l-.49.46-.53.15h-.1l-.08-.04.06-.05.1-.06.08-.1.04-.14-.04-.22-.1-.33-.13-.37-.08-.09-.1-.03-.04.09-.25-.05-.44.32-.36.17-.26.27-.1.07-.05-.07-.04-.1v-.12l.02-.26v-.16l-.05-.38-.07-.1-.09-.05-.07-.01h-.1l-.1.04-.08.06-.23.3-.04.04-.07.03h-.13l-.09-.05-.03-.03-.1-.19-.2-.21-.13-.12-.26-.1-.25-.03-.63-.13-.33.1-.16.1h-.12l-.4-.12-.16-.1-.11-.1-.3-.18-.08-.04.56-1.25.2-.22.13.24.2.12.5.07v-.12l-.17-.22-.18-.16-.2-.11-.57-.14-.2-.16-.1-.26v-.35l.21-.45.46-.74 1.16-3.23.22-.8.02.05 1.24 1.57.4.09.12-.16.07-.27.32-.4.44.39-.12.4v.46l.09.13.1.04.11-.04.22-.11.2-.07h.15l.03.34.12.29.01.12-.02.1-.09.24-.03.04-.06.05-.04.02-.07.06-.08.1-.12.24-.06.17-.02.15.02.1.07.12.72.15.1-.06.13-.1.07-.15.32-.34.08-.13.12-.11.1-.02.26.04.17-.18v-.14l.13-.11z"/>
  <path id="Guarda_PT" d="M138.2 788h-.01l-.08.31-.15.2.01.22.11.2.36.45.15.3.21.7.08.36.1.15.18.06.12.11.05.23-.07.2-.2.05-.06.42v.11l.04.18-.02.1-.04.08-.04.16-.03.32.01.24.12.56.06.56v.3l-.02.2-.1.28-.34.52-.1.25v.3l.1.17.13.16.11.24.05.3-.05.2-.32.4-.28.56.03.54.26.5.39.44-.25.39-.12.1-.58.37-.08.08-.06.12-.02.15-.02.13-.04.1-.24.14h-.25l-.24-.05-.09.01-.05-.07-.12-.16-.18-.15-.3-.18-.07-.02-.13-.03-.21.04h-.29l-.28-.09-.1-.1-.1-.24-.05-.12-.06-.09-.08-.03-.15.11-.09.12-.07.13-.03.11-.1.09-.16.04-.6-.05-.59.17-.3-.1-.27-.08-.12-.07-.08-.02-.08-.06-.04-.05-.01-.1.04-.12.14-.17.12-.1.1-.13.2-.42.19-.98-.14-.08-.1-.01h-.22l-.13.03h-.1l-.3.3-.41.08h-.14l-.29-.11-.45-.46-.69.56-.2.29-.03.11-.1.22-.1.1-.13.1-.43.05-.3-.15-.28.35-.3.27-.35.18-.35.11-.5.32-.15.06h-.22l-.25.09-.17-.31-.32-.23.17-.31.08-.26.1-.16.13-.12.3-.18.04-.11-.03-.1-.17-.17-.07-.14-.05-.61.03-.15-.07-.08-.21-.07-.1-.08-.07-.17.04-.1.1-.08.1-.03.12-.05.08-.1.06-.15v-.12l-.06-.13-.08-.07-.1-.39.14-.11.38-.03.13-.03.36-.2.38-.1.42-.27.54-.15.85-.07-.02-.35.37-.9.19-.18.1-.41-.2-.31-.26-.21-.1-.26.15-.16.04-.1v-.11l-.02-.12-.06-.1-.29-.29-.1-.14v-.12l.05-.1.16-.19.16-.25.18-.44.06-.07.1-.09.16-.06.3.05.13.06.17.17.38.5.07.06.08.12.2.03.14-.17.34-.64.03-.18-.03-.17-.05-.1-.02-.34.16-.07.46.15.43-.33.13-.28.02-.18-.01-.13-.06-.1-.1-.06-.1-.08-.1-.1-.08-.2v-.1l.05-.07.3.04.16-.1-.02-.45.07-.3.15-.48.4-1.05h.98l.39.15.25.01.13-.16.5-.3.13-.05-.14.34-.07.1.05.08.07.07.07.06.09.03.12.06-.02.11-.07.15-.03.15.05.22.08.23.12.19 1.05.65.52.07.2.07h.01z"/>
  <path id="Porto_PT" d="m125.67 781.52.18.28-.02.15v.14l.08.15.17.12.32.29-.07.2.03.26.17.4.15.14.05.03-.24.65-.05.4-.1.39-.58.3-1.56.4h-.35l-1.23-.21-.42.05-.86.26-.07.17-.04.05-.64.36-.24-.11-.34.13-.02.08v.1l.05.1v.12l-.04.06h-.1l-.2-.2-.08-.2-.05-.1-.23-.3-.24.24-.06.09-.1.22-.1.05h-.13l-.17-.11-.1-.12-.1-.07-.15-.01-.2.12-.41.1-.2-.16-.54.02-.12.02.02-.23-.04-1.13.07-.58.25-.21v-.1l-.44-.16-.2-.48-.1-.6-.2-.49.09-.21-.01-.19-.05-.19-.03-.2.05-.52-.04-.17-.09-.05-.03-.18-.03-.17-.14-.32-.05-.25.02-.2.03-.48.18-.53.3.03.27.2.3.2.3.03.12.06.1.11.07.1.19.24.16.12.13.05.11.13.04.1-.05.09-.07.03-.13.02-.1.12v.13l.03.23.06.13.08.05h.17l.7.06.09-.02.1-.02.1-.07.1-.07.25-.11.22-.04.15.01.09.07.08.07.3.08.39-.06.51-.03.1.05.15.14h.08l.3-.09.1-.01.4-.15.25-.16.22-.26.58.29.23.28.04.1-.04.16.4.37.39.22.13-.02.26.17.13.13.13.01.1-.03.1-.07.06-.06.05-.06.1-.06.07-.04.06-.06.05-.07.03-.07.06-.16z"/>
  <path id="Viseu_PT" d="m133.71 785.77-.4 1.05-.16.47-.07.31.03.45-.17.1-.3-.04-.04.07v.1l.07.2.1.1.11.08.1.06.06.1.01.13-.02.18-.13.28-.42.33-.47-.15-.16.07.03.34.05.1.02.17-.03.18-.34.65-.14.17-.2-.03-.08-.12-.06-.07-.38-.5-.17-.16-.13-.06-.3-.05-.15.06-.1.1-.07.06-.18.44-.16.25-.16.18-.05.11v.12l.1.14.29.28.05.11.03.11-.01.12-.04.1-.15.16.1.25.26.21.2.31-.1.41-.19.2-.37.89.02.34-.85.08-.54.15-.42.26-.38.1-.36.2-.13.03-.38.03-.14.12-.26.04-.14.08-.15.15-.45.3-.34.44-.24.1-.58.35-.7.22-1.02.63-.72-.19-.54.05-.06.05-.04.07-.01.08-.04.06-.04.05-.07-.01-.1-.11-.18-.12-.18-.2-.28-.23-.37-.15-.11-.1-.14-.08v-.52l.4-.53.07-.13.03-.22-.1-.24-.02-.11.03-.1.3-.19.72-.22-.12-.26-.07-.11-.08-.1-.06-.1-.05-.31-.1-.38v-.11l.08-.12.1-.08.52-.16-.2-.19-.2-.11-.07-.05-.06-.23.03-.47-.03-.12-.06-.14-.15-.21-.05-.11-.01-.1v-.09l.01-.07.14-.2.31-.2.32-.3.3-.54.14-.18.02-.1-.09-.52h.38l.1.05.14.04.15-.01.23-.1.15.02.1.05.1.08.1.06.1.02.11-.02.08-.1.02-.2-.08-.3-.02-.44-.03-.23v-.11l.05-.2.08-.17.44-.54.03-.09v-.02l.01-.04v-.07l-.04-.07h-.08l-.18.12-.04.05-.04.05-.1.2h-.17l-.15-.01-.9-.54.05-.37.02-.1-.02-.17-.04-.1-.7-.57.86-.26.42-.05 1.22.2h.36l1.56-.39.57-.3.7-.36.24-.01.17.1.26.31.14.13.2.09.24.03.24-.02.22-.06.37-.21.2-.08h.23l.51.1.59-.03 1.5-.42.19.02.18.15.32.58.15.15.4.18h.32z"/>
  <path id="Vila_Real_PT" d="m135.85 773.73.02.09.04.33-.04.17-.06.33v.3l.03.17.08.3.2.34v.14l-.02.23-.04.09-.07.09-.08.03-.11.1-.37.63-.51 1.35-.09.44v.22l.03.14.05.11.06.11.04.12v.1l-.04.1-.1.03-.1.02h-.12l-.12.04-.13.13-.17.27-.11.25-.12.14-.11.05-.12.04-.43.27-.07.82.04.34.07.24.1.14.27.2-.43.1-.24.22-.04.17.02.1-.03.07-.14.13-.12.15-.07.2-.02.14v.21l-.04.02h-.18l-.12.05-.06.1-.03.07-.09.22-1.5.42-.59.03-.51-.1h-.25l-.19.07-.38.22-.21.06-.24.01-.24-.03-.2-.08-.15-.13-.26-.32-.16-.1-.25.02-.69.36.1-.39.06-.4.23-.65-.05-.03-.15-.13-.17-.4-.03-.26.07-.21-.31-.3-.17-.1-.08-.15v-.15l.02-.15-.18-.28.13-.28v-.1l-.01-.11.03-.05.04-.02.06-.04.05-.11.2-.29.06-.11.02-.09-.04-.12.14-.39.13-.15.07-.04h.06l.1.04.13-.1.08-.2.05-.05.24-.09.17-.15.56-.7.04-.2-.17-.4-.05-.07-.12-.08-.28.27-.38.07-.16-.02-.46-.15-.12-.06-.11-.07-.14-.04-.24-.14.12-.74.04-.15.07-.2-.02-.1-.06-.07-.3-.23-.07-.05-.08-.02-.25.1h-.09l-.1-.03-.1-.02h-.09l-.08.03-.16.02-.17-.03.31-.3.07-.1.09-.15.14-.34.13-.2.13-.46.07-.11.07-.1.03-.1.01-.08-.03-.03h.03l.44-.4.14-.18.16-.15.18-.07.2.06.22.01.14-.2.08-.28.08-.18.25-.07v.45l.03.49.39.04.1-.1.05-.1.06-.08.13-.03.33.05.78-.12.36-.15.19.07.32.28.2.13.66.08-.24.51v.16l.18.13.22.04.26-.02.26-.06.2-.12.07-.12.03-.1.03-.1.1-.08.1.01.17.15.12.03.16.07.14.24.09.3.03.26.17-.12.33-.32.17-.1.19-.02.44.05.23-.01.9-.23.42-.22.13-.16z"/>
 <path id="Lisboa_PT" d="m108.47 821.77-.1.03-.02.04-.1.06-.15.12-.16.25-.13.28.07.04.28-.22.19-.25.09-.25.03-.1zm3.44-3.03-.5.32-.25.09-.56-.03-.25.06-.47.28-.38.5-.65 1.13.06.4.03.4.12.29s.33.28.45.1c.08-.08.17-.14.23-.22l.22-.35.56-1.18.16-.25.12-.16.1-.19.28-.34-.12-.13-.03-.15.46-.06.32-.32.06-.03.03-.06v-.1zm-5.44-4.68-.1.06-.59.25-.46-.03h-.13l.03.43-.12.5-.13.63-.31.6-.19.4-.6.87-.09.44-.18.37.09.66-.06 1-.57 1.28-.34.31-.19.2-.1.12-.02.37.09.75-.1.25-.06.34.25.13.57-.03.3.1.54.27.47.38.25-.25.25-.16.84.16.72-.06.7-.13.2-.37-.02-.4.03-.57v-.3l.12-.3.16-.18.44-.44.84-1.37.72-.85.28-.43.2-.13h1.08l.63-.37-.1-.25-.03-.1-.06-.06-.06-.06-.25-.16-.1-.06-.3-.37-.07-.13-.06-.22-.1-.06-.09-.06-.06-.1.03-.12.19-.1.16-.03.37.04.22-.03.19-.13-.6-.72-.06-.25-.53.1-.84-.35.03-.25-.1-.4-.34-.13-.25-.12-.19-.07h-.12l-.1.03-.15.1-.28.28-.34.5-.29.28-.3.19-.2-.22-.18-1.03-.07-.19-.09-.16-.1-.06h-.05l-.16-.03z" fill="#fff" stroke="#000" stroke-width=".2"/>
 <path id="Setúbal_PT" d="m109.25 822.82.13.34.1.25v.1l-.07.02-.1.07-.05.03-.5.34-.38.25-.22.19-.21.22-.04.1h-.18l-.4.08-.23.07.06.37-.09-.03-.1-.22-.24-.18h-1.16l-.25.12.13.53.34.66.22.78-.1.81-.12.5-.4.37-.13.13-.03.03-.06.1v.12l.03.1.06.02.32.13.22-.03.25-.13.25-.09 1.28-.03.75-.22-.1-.1.66-.62.62-.06.47.22.44.28.25.1.31.06.13-.13v-.25l-.1-.28-.28-.06v-.1l.25-.06.32-.5.18.06-.1.16.04.25.1.22.18.06-.03.13-.1.09-.09.12-.03.22v.25l.03.22.13.16.9.53.32.12.37.07-.66.15-1.25-.5-.53-.03v-.22l-.28-.18-.56-.25-.44-.47-.28-.16-.22.19.34.19.44.43.38.5.28.41.28.69.03.93v1.07l-.03.9-.38.85-.37 1.15-.78 1.4-.13.1-.1.06-.09.03-.09.16.5.38.44.12.15.44.03.4-.03.57-.06.28.1.16.06.09.06.06.1.03.08-.06.13-.03.1-.03.21.1.06.12.07.1.28.46.1.22.05.1h.06l.07-.07.06-.1.1-.02.09.03.1.06.08.1.22.12h.13l.22-.03.1-.13.02-.12.03-.13.16-.37.06-.1.25-.21.06-.13.07-.12.12-.1.25-.1 1.16-.09.56.13.34.06h.07l.34.25.22-.44.1-.12.15-.44.16-.72.03-.47-.1-.37-.06-.19-.15-.16-.16-.03-.15-.03-.16-.1-.16-.24-.25-.22-.03-.19-.03-.09v-.1l.06-.09.03-.09.04-.1.06-.12.06-.15h.1l.06.06.09.03h.06l.03-.06.03-.07.1-.15.03-.06v-.16l.06-.1.1-.03.05-.06h.1l.12.06.1.1.1.03.09-.03.12-.28v-.16l.06-.1.1-.06.47.07.09-.13.06-.19.13-.03.47-.09.21-.06.47-.1.1-.19v-.12l.02-.16-.06-.43-.25-.72-.47-.4-.22-.13h-.12l-.13-.04-.12-.06-.25-.19-.16-.15-.28-.13-.06-.06v-.12l.25-.35.06-.28-.03-.16-.1-.06-.18-.12-.03-.1v-.09l.06-.03v-.1l-.13-.5v-.15l-.06-.12-.16-.2-.22-.34-.12-.06-.22.06-.3.16-.2.03h-.37l-.16-.1-.13-.09-.06-.1-.03-.08-.06-.07-.13-.03-.06.06v.1l.03.1-.03.09-.1.03-.27-.13-.38-.1-.47-.34-.37-.09-.03-.4-.03-.13-.07-.13v-.15l.03-.13.54-.56 1.12-.66.22-.25.12-.12.07-.22v-.1l.15-.24-.03-.19-.06-.06-.53-.16-.32-.06-.12-.03-.13-.03-.15-.22v-.13l.03-.15.03-.13v-.12l.03-.13v-.06l-.06-.06-.22.1-.25.12-.34-.16-.13-.12-.1-.07-.05-.06h-.1l-.44.72-.22.47-.02.12-.22.22-.22.06h-.1l-.34-.18-.12-.16-.1-.06-.12-.03-.22.03-.16.06-.28.06h-.12l-.13-.03-.1-.12-.02-.28.03-.2-.06-.4-.03-.1-.07-.09-.19-.3c-.05-.04-.11.2-.11.2z" fill="#fff" stroke="#000" stroke-width=".2"/>
 </g>
</svg>
